<?xml version="1.0" encoding="UTF-8"?>
<svg id="_图层_2" data-name="图层 2" xmlns="http://www.w3.org/2000/svg" viewBox="0 0 721 650.58">
  <defs>
    <style>
      .cls-1 {
        fill: none;
        stroke: #707070;
      }

      .cls-2 {
        fill: #f3ebc4;
      }

      .cls-2, .cls-3, .cls-4, .cls-5, .cls-6 {
        stroke-width: 0px;
      }

      .cls-3 {
        fill: #707070;
      }

      .cls-4 {
        fill: #744823;
      }

      .cls-5 {
        fill: #f18db0;
      }

      .cls-6 {
        fill: #ffd0e6;
      }
    </style>
  </defs>
  <g id="_图层_6" data-name="图层 6">
    <g id="_矩形_2" data-name="矩形 2">
      <rect class="cls-2" x="51.5" width="618" height="629" rx="5" ry="5"/>
      <rect class="cls-1" x="52" y=".5" width="617" height="628" rx="4.5" ry="4.5"/>
    </g>
    <g id="_路径_1" data-name="路径 1">
      <path class="cls-4" d="m709.08,650.08H11.92c-3.04,0-5.91-1.29-8.06-3.65-2.17-2.36-3.36-5.51-3.36-8.85s1.19-6.49,3.36-8.85c2.16-2.35,5.02-3.65,8.06-3.65h697.15c3.04,0,5.91,1.29,8.06,3.65,2.17,2.36,3.36,5.51,3.36,8.85s-1.19,6.49-3.36,8.85c-2.16,2.35-5.02,3.65-8.06,3.65Z"/>
      <path class="cls-3" d="m11.92,625.58c-6.02,0-10.92,5.38-10.92,12s4.9,12,10.92,12h697.15c6.02,0,10.92-5.38,10.92-12s-4.9-12-10.92-12H11.92m0-1h697.15c6.59,0,11.92,5.82,11.92,13s-5.34,13-11.92,13H11.92c-6.59,0-11.92-5.82-11.92-13s5.34-13,11.92-13Z"/>
    </g>
    <g id="_组件_2_3" data-name="组件 2 3">
      <g id="_矩形_3" data-name="矩形 3">
        <path class="cls-5" d="m9.5,0h78v114c0,21.54-17.46,39-39,39h0c-21.54,0-39-17.46-39-39V0h0Z"/>
        <path class="cls-1" d="m10,.5h77v113.5c0,21.26-17.24,38.5-38.5,38.5h0c-21.26,0-38.5-17.24-38.5-38.5h0V.5h0Z"/>
      </g>
      <g id="_矩形_4" data-name="矩形 4">
        <path class="cls-6" d="m87.5,0h78v114c0,21.54-17.46,39-39,39h0c-21.54,0-39-17.46-39-39V0h0Z"/>
        <path class="cls-1" d="m88,.5h77v113.5c0,21.26-17.24,38.5-38.5,38.5h0c-21.26,0-38.5-17.24-38.5-38.5h0V.5h0Z"/>
      </g>
      <g id="_矩形_5" data-name="矩形 5">
        <path class="cls-5" d="m165.5,0h78v114c0,21.54-17.46,39-39,39h0c-21.54,0-39-17.46-39-39V0h0Z"/>
        <path class="cls-1" d="m166,.5h77v113.5c0,21.26-17.24,38.5-38.5,38.5h0c-21.26,0-38.5-17.24-38.5-38.5h0V.5h0Z"/>
      </g>
      <g id="_矩形_6" data-name="矩形 6">
        <path class="cls-6" d="m243.5,0h78v114c0,21.54-17.46,39-39,39h0c-21.54,0-39-17.46-39-39V0h0Z"/>
        <path class="cls-1" d="m244,.5h77v113.5c0,21.26-17.24,38.5-38.5,38.5h0c-21.26,0-38.5-17.24-38.5-38.5h0V.5h0Z"/>
      </g>
      <g id="_矩形_7" data-name="矩形 7">
        <path class="cls-5" d="m321.5,0h78v114c0,21.54-17.46,39-39,39h0c-21.54,0-39-17.46-39-39V0h0Z"/>
        <path class="cls-1" d="m322,.5h77v113.5c0,21.26-17.24,38.5-38.5,38.5h0c-21.26,0-38.5-17.24-38.5-38.5h0V.5h0Z"/>
      </g>
      <g id="_路径_7" data-name="路径 7">
        <path class="cls-6" d="m438.5,152.5c-5.2,0-10.24-1.02-14.99-3.03-4.58-1.94-8.7-4.72-12.24-8.25-3.54-3.54-6.31-7.65-8.25-12.24-2.01-4.75-3.03-9.79-3.03-14.99V.5h77v113.5c0,5.2-1.02,10.24-3.03,14.99-1.94,4.58-4.72,8.7-8.25,12.24-3.54,3.54-7.65,6.31-12.24,8.25-4.75,2.01-9.79,3.03-14.99,3.03Z"/>
        <path class="cls-3" d="m400.5,1v113c0,5.13,1,10.11,2.99,14.79,1.91,4.52,4.65,8.59,8.14,12.08,3.49,3.49,7.55,6.23,12.08,8.14,4.68,1.98,9.66,2.99,14.79,2.99s10.11-1,14.79-2.99c4.52-1.91,8.59-4.65,12.08-8.14,3.49-3.49,6.23-7.55,8.14-12.08,1.98-4.68,2.99-9.66,2.99-14.79V1h-76m-1-1h78v114c0,21.54-17.46,39-39,39s-39-17.46-39-39V0Z"/>
      </g>
      <g id="_矩形_9" data-name="矩形 9">
        <path class="cls-5" d="m477.5,0h78v114c0,21.54-17.46,39-39,39h0c-21.54,0-39-17.46-39-39V0h0Z"/>
        <path class="cls-1" d="m478,.5h77v113.5c0,21.26-17.24,38.5-38.5,38.5h0c-21.26,0-38.5-17.24-38.5-38.5h0V.5h0Z"/>
      </g>
      <g id="_矩形_10" data-name="矩形 10">
        <path class="cls-6" d="m555.5,0h78v114c0,21.54-17.46,39-39,39h0c-21.54,0-39-17.46-39-39V0h0Z"/>
        <path class="cls-1" d="m556,.5h77v113.5c0,21.26-17.24,38.5-38.5,38.5h0c-21.26,0-38.5-17.24-38.5-38.5h0V.5h0Z"/>
      </g>
      <g id="_矩形_11" data-name="矩形 11">
        <path class="cls-5" d="m633.5,0h78v114c0,21.54-17.46,39-39,39h0c-21.54,0-39-17.46-39-39V0h0Z"/>
        <path class="cls-1" d="m634,.5h77v113.5c0,21.26-17.24,38.5-38.5,38.5h0c-21.26,0-38.5-17.24-38.5-38.5h0V.5h0Z"/>
      </g>
    </g>
  </g>
</svg>